<svg xmlns="http://www.w3.org/2000/svg" viewBox="0 0 400 400"><defs><style>.cls-1{fill:#00b5f2;}.cls-2{fill:#7dcd00;}.cls-3{fill:#fff;}</style></defs><g id="Слой_2" data-name="Слой 2"><g id="Слой_1-2" data-name="Слой 1"><circle class="cls-1" cx="200" cy="200" r="193.19"/><path class="cls-2" d="M98,350.72h1s-1.89-3.79,0-4.42,2.53,0-1.26-3.79,0-2.53,1.89-1.9,5.69-4.42,3.16-12,.63-8.21,7.58-10.1,1.9-19.58,3.79-22.74S130.58,280.62,106,273s-22.73-14.53-23.37-19-5.68-10.73-5.68-10.73c-7.58,2.52-11.37-12.63-11.37-12.63s-1.89-2.53-3.79-1.27S42.8,218.73,42.8,218.73c-.63,2.52-1.27,2.52-3.79,4.42s-1.9,3.16-1.9,3.16L33.32,256c10.11,29.05,25.9,42.94,25.9,42.94,3.15,13.26,24.63,49.26,29.68,51.79s8.84,8.21,12,11.37,20.21,12,20.21,12-15.16-11.37-17-13.27S98,350.72,98,350.72Z"/><path class="cls-2" d="M145.74,49.48c-1.27,0-.63-2.53-.63-2.53a6.85,6.85,0,0,1-3.79,2.53c-2.32.58-2-.43-1.91-.61-.12.28-1.55,3.31-7.57,6.92-6.31,3.79-1.26-3.79-1.26-3.79-7,2.53-12-1.89-8.21-6.94s12.63-10.74,12-11.37,0-2.53,0-2.53c7.58-5.05,18.95-8.21,18.31-8.84s-5.68,1.26-10.1,1.9-3.16-.64-3.16-.64c-20.21,5.06-48,19-48,19S106,36.85,106,38.11c0,.93-3.79,2.9-5.77,3.86,3.65-1.64,2.61-.07,2.61-.07-4.42,2.52-26.52,20.21-26.52,20.21s2.52,0-10.74,11.36c-22.73,21.48-32.84,37.9-41,51.79s-8.84,31-8.84,31A92.91,92.91,0,0,1,22,134.73c6.31-12-.64,9.48-.64,9.48-3.15,9.47-5.68,20.21-6.31,29.68s1.89,12,5,20.84S27.64,213,27.64,213s3.79,10.74,5.68,10.27,1.27-5.21,0-5A3.06,3.06,0,0,0,31.43,220c-1.9-1.26-2.53-4.42-2.53-4.42s1.9-8.84-.63-12.63-3.16-6.95-1.89-11.37,5.68-9.47,3.15-12c-1.89-1.89-6.31,4.42-7.57,3.79-5.69-3.79,3.79-25.89,5.05-27.15s5.68-.64,5.68-.64,7.58,0,11.37,3.16-3.16,14.53-1.89,15.79,3.78-9.47,4.42-12,30.94-30.31,37.26-31.58c6.94-.63,1.89,1.27,4.42,3.16S99,130.31,99,130.31a6.15,6.15,0,0,1-3.79-3.79c-1.26-3.15,3.16-3.15,1.9-5.68s0-3.16,1.89-3.79c1.9-1.26,2.53,1.9,3.79,2.53s1.27-1.9,5.69-1.9,1.26,2.53,0,3.16-5.69,5,0,7.58,5.68-6.32,5.68-9.47,6.32-28.42,5.68-29.06-3.15,1.9-5,1.27,3.79-11.37,1.9-12.63C112.9,76,103.42,91.16,103.42,91.16s-15.15,14.52-17.68,13.89c-3.16-1.26,4.42-8.84,6.32-14.52s-1.27-5.69,1.26-10.74,13.89-10.1,13.89-10.1S125.53,63.37,130,59.58s6.31-5.68,7.58-4.42-1.27,7-1.27,7c-1.26.63-2.52,1.89-5,4.42s-3.79,1.89-5.68,2.52c-1.9,1.27-3.16,12-.63,12.63s5-7.57,6.31-9.47,4.42,0,4.42,0S147,49.48,145.74,49.48Z"/><path class="cls-2" d="M100.18,42,99,42.53Z"/><path class="cls-2" d="M139.41,48.87v0Z"/><path class="cls-2" d="M46.59,194.1c-.64-1.9-6.32-8.84-7-9.48s-3.79-3.15-4.42-1.89c0,0-.63.63.63,1.26,2.53,1.27,6.95,8.21,7.58,9.48S47.22,196,46.59,194.1Z"/><path class="cls-2" d="M39.64,197.26c0,1.89,1.26,3.15,1.89,3.15s.64-1.26.64-1.89S39.64,196.36,39.64,197.26Z"/><path class="cls-2" d="M51.05,203.19c1.3-.38,4.38,1,4.38,1,0-1.26-2.53-5-4.2-5.5s-4.66,2.35-4.56,2.67C47.38,203.6,49.74,203.57,51.05,203.19Z"/><path class="cls-2" d="M117.32,71l1.26.61c1.26-.63,1.26-4.42,1.26-4.42-3.15.63-5,3.79-5,3.79Z"/><path class="cls-2" d="M127.42,48.21c1.27.64,11.37-6.31,15.79-10.56.63-4.24,6.32-7.12,6.32-7.12-2.53,0-12.63,5-12.63,5,6.94-1.26-9.48,8.21-9.48,8.21s-1.26.63-.43,1.13a2.32,2.32,0,0,1,1.06,2C128.05,47.58,126.16,47.58,127.42,48.21Z"/><path class="cls-2" d="M149.53,34.3a7.4,7.4,0,0,0,5.68-2.51h-.63c.63-1.26-.19-1.26-.19-1.26a36.67,36.67,0,0,0-4.23,2.53A1.93,1.93,0,0,0,149.53,34.3Z"/><path class="cls-2" d="M155.84,36.21c-2.52,0-8.11,4.62-7,6.95,1.27,2.53,2.53,1.9,2.53,1.9s-.63.63,1-.77.95-.5,0-2.8S155.84,36.21,155.84,36.21Z"/><path class="cls-2" d="M158.37,40s1.26-2.52,7.58-4.42,9.47-3.15,10.1-4.42-1.26-1.89-1.89-2.52-3.79.63-4.54,1.89.12,3.16-1.78,2.53-3.16.63-4.42,1.89-5,1.26-6.32,2.42,0,2.63,0,2.63C158.37,40.64,158.37,40,158.37,40Z"/><path class="cls-2" d="M164.68,77.26c.63-1.89,3.16-1.26,5.69-1.89s2.52-3.16,2.95-3.79,3.36-1.26,4-1.26,7.58-8.21,6.95-9.48,0-3.15,0-3.78,2.53-3.16,2.53-5.69,2.52-1.26,2.52-2.52-1.89-.64-1.89-1.9,5.05-5.68,5.05-5.68l-2.18-.86c-2.18-.86-2.87.86-4.82.3s-.58-3.23-.58-3.23,3.16,1.26,3.16-.63-5.05-2.53-5.58-2.31a10.57,10.57,0,0,1-1.37.41s-.63,2.53-2.52.63-3.16-.63-3.16-.63l-10.74,3.79a45.9,45.9,0,0,1-3.15,3.79,9.68,9.68,0,0,0-1.9,3.79c3.16,0,1.9,3.16,1.9,3.16,0,6.94-9.48,19.57-13.9,24s-7.58,19.58-7.58,19.58c5.69,1.9,10.74-1.89,11.37-4.42s1.9-2.52,7.58-3.79S164.05,79.16,164.68,77.26Z"/><path class="cls-2" d="M172.89,84.84c-3.79-1.26-6.94,9.48,1.9,9.48s8.21-8.21,7.58-8.85C182.37,85.47,176.68,86.11,172.89,84.84Z"/><path class="cls-2" d="M211.42,53.27l-.33-.66a2.88,2.88,0,0,1-.31-1.29v-.73a.48.48,0,0,1,.48-.48h2.05a2.93,2.93,0,0,0-.65-1.86c-1.92-1.22-1.88-2.56-1.88-2.56h1.27c-.63-2.53-3.16-2.53-4.42-2.53s-2.53,2.53-1.1,6.32A5.52,5.52,0,0,0,211.42,53.27Z"/><path class="cls-2" d="M246.78,60.84c-4.42-2.52-10.13-17.68-10.13-17.68l-1.24-.63c0,4.42,1.27,11.37,4.43,15.16A7.87,7.87,0,0,0,246.78,60.84Z"/><path class="cls-2" d="M381.93,189.68c1.26-.63,3.16,8.21,3.16,8.21s0-7.58-1.9-13.27-3.79-18.94-3.15-22.1,2.52,4.42,2.52,4.42c0-1.89-3.16-15.79-7.58-30.31s-13.89-27.16-13.89-27.16c-.63,5.69-6.32-6.94-6.32-6.94,0-1.45,1.11-.69,1.63-.25a.89.89,0,0,1,.27-.39c.63-.63,3.79,3.16,3.79,3.16a177.57,177.57,0,0,0-42-46.73,2.19,2.19,0,0,1-2.17,0c-2.53-1.26-22.73-17-22.73-17L292.88,40S279,32.43,277.1,31.79,279,30.53,279,30.53s-4.42-3.16-25.89-9.47-25.9-3.16-25.9-3.16c10.11,0,11.37,1.89,13.27,3.16s-1.9,1.26-.63,1.26.63,1.9.63,1.9,10.1,3.78,10.1,5.05-5.68,0-5.68,0,8.21,7.58,6.94,8.21-5.05-1.64-5.05-1.64-12.63-6.57-12.63-5.31,10.74,9.47,13.9,12,12,10.74,11.36,11.37-8.21-5.69-8.21-4.42,4.42,3.79,8.84,6.31,6.95,8.84,4.43,9.48-15.16-14.53-15.16-14.53-3.79-1.26-1.9,0,6.32,7.58,9.48,12,0,1.89-2.53,1.89-3.79,5.69-5.05,12.63S244.26,87.37,243,87.37s-6.31-6.32-6.31-7.58,7.58.63,7.58-.63-10.11-10.11-21.48-9.47c-6.94,0-7.57,14.52-8.21,17s-8.21,6.31-8.21,13.89,4.42,8.84,5.69,8.84,2.52-3.79,2.52-3.79,2.53-.63,2.53.63c.63,3.16,3.79,10.11,5.05,10.74s3.79-5.68,3.79-9.47,1.9-4.42,1.26-5c-5-3.16-4.42-5.06-4.42-7.58s2.53-12,5.06-12,1.89,4.42,1.26,6.31-2.53,5.69.63,9.48,3.16,1.89,4.42,0,3.16-1.27,5.69-.64,1.89,2.53,1.89,2.53c-3.16-.63-6.95,1.26-8.21,9.47s-3.79,10.11-9.47,11.37-8.84-9.47-9.48-9.47-1.26.63,0,5,.59,5.41.59,5.41c-3.21.35-7.53,4.7-8.8,7.22s-7.57,6.32-10.73,8.21-1.27,3.16-1.27,3.16,6.32,7.58,5.06,10.74-10.74,1.26-13.9,1.89-7.57,18.95,2.53,20.21c14.52,1.89,14.52-10.74,14.52-10.74s12.64-11.36,15.79-12,12,12,14.53,14.53,3.79,1.89,3.79,1.89c1.89-5.68-3.16-9.47-8.84-13.26s-3.16-9.47-2.53-9.47,2.53,1.89,3.79,3.16,8.21,3.15,11.37,8.84,8.84,14.52,8.84,14.52c5.05-2.52,1.89-6.31.63-9.47s3.79-4.42,5.05-5,3.16,0,1.9-3.79a26,26,0,0,1-1.27-9.47c0-3.16,7.58-7.58,6.32-3.16-1.26,5.68,3.16,4.42,3.16,4.42,0-1.26,3.15-3.16,3.15-4.42s-4.42,0-4.42-1.9c0-2.52,7.58-2.52,7.58-2.52-.63,1.26-.63,2.52,0,5.05s12,6.31,12,8.21-5.05,1.26-5.05,1.26l-.63.63h-8.84c-1.27,2.53-8.21,3.79-11.37,8.21-3.79,5.69,2.52,10.74,2.52,10.74.64-.63,15.79-3.16,15.79-3.16s3.16-1.26,1.9,8.84c-1.9,12,5,15.79,5,15.79,19.58,18.32,25.26,36,25.26,36s4.42,1.89,8.84-5c5.05-9.48,7.58-9.48,8.84-10.11s7.58-13.26,6.95-17.68c-1.89-5.68-9.47-8.21-10.1-8.21s-2.53,3.79-2.53,3.79c-3.79,0-10.1-3.16-12-5.69s-.63-6.94-.63-6.94c2.53,0,3.79,1.26,5.68,3.16s.63,1.89,7,3.15c9.47,1.9,12.63-2.52,18.31-1.89,13.9.63,25.27,39.15,25.9,39.15s3.16-9.47.8-21.35,1.09-25.38,4.25-26,7.58,10.1,7.58,10.1-.63-1.89.63-1.89,6.95,36,6.95,36C385.09,213,380.67,190.31,381.93,189.68Z"/><path class="cls-2" d="M356.67,102.53l-.27-.25C356.34,102.52,356.67,102.53,356.67,102.53Z"/><path class="cls-2" d="M191.21,109.47c-1.27-1.26-.63-1.26-.63-1.26-1.9-.63-1.9,3.16-1.9,3.16,2.53,0,1.9,1.26,1.84,2.83s2.58,2.85,3.21,7.27c1.27,5-3.79,10.74-3.15,12.63,0,.63,11.36-1.89,12-3.79s-5-11.36-6.31-13.26,1.26-3.16,1.15-4c0,0-2.41-6.1-3.68-6.1S192.47,110.74,191.21,109.47Z"/><path class="cls-2" d="M188.05,128.42c3.16-1.26,3.16-7.58,1.89-9.47s-3.79.63-4.42,1.26a2.24,2.24,0,0,1-1.83.36c2.46,4.06-2,6-1,7C183.06,128,184.89,129.68,188.05,128.42Z"/><path class="cls-2" d="M273.94,172a1.72,1.72,0,0,0-2.53-1.26s-.63,2.53,0,2.77S273.94,173.26,273.94,172Z"/><path class="cls-2" d="M260.28,173.26c.23-1.27-1.5,0-2.94,0s-5.52-1.09-4.87,0C254.36,176.42,260,174.52,260.28,173.26Z"/><path class="cls-2" d="M219.63,157.47c0-.63-1.27-1.26-1.27-1.26s-.63,1.26,0,1.89S219.63,158.1,219.63,157.47Z"/><path class="cls-2" d="M208.89,165.05a1.36,1.36,0,0,0-2.53-.63,3.08,3.08,0,0,0,.64,1.89C207.63,166.94,208.89,166.31,208.89,165.05Z"/><path class="cls-2" d="M218.08,163.73c1,1.2.28,3.21,2.38,1.41s-.2-5.14-1.61-4.73C218.85,160.41,217.1,162.52,218.08,163.73Z"/><path class="cls-2" d="M383.19,233.88s1.9-9.47-2.52-15.78C380.67,218.1,383.82,230.1,383.19,233.88Z"/><path class="cls-2" d="M368,215.57c-1.27,3.16,0,7.58.63,7.58S368.27,215,368,215.57Z"/><path class="cls-2" d="M316.88,229.46c-3.16,6.95-9.47,6.32-10.73,5.69s-1.27-5.69-1.9-6.32-21.47-29.05-24.63-32.21-3.79-7.57-4.67-11.93-16.8-4.49-23.12-3.85-4.42,3.78-9.47,6.94-18.31-4.42-18.31-4.42,1.89-5.68,1-9.52-13.65-3.11-30.71,3.84-15.15,14.52-15.15,14.52c-17.68,13.9-19,23.14-19,23.14,5.69,4.2-.63,16,0,21.07S181.1,259.78,183.63,261,200.05,257.25,207,256s5.05,1.26,8.84,3.79,2.52-3.16,8.84.63-1.26,7.58-1.26,13.26,6.94,6.32,10.1,12,.63,10.1-3.16,21.47,9.48,38.53,9.48,38.53c34.1-5.06,31.57-20.84,31.57-20.84s6.95-1.9,7.58-3.16c1.26-4.42,8.84-15.79,8.84-15.79s5.69-2.53,8.21-6.95-.63-13.26,0-20.21,10.74-15.15,20.21-32.2,6.32-20.85,6.32-20.85S319.41,225.67,316.88,229.46Z"/><path class="cls-2" d="M315.62,289.46s-2.53,0-3.16,1.89-3.16,7.58-6.56,7.81-5.67,5.12-5.67,5.12a5.49,5.49,0,0,1,.23,4.13s-6.94,8.21-4.42,10.1,4.42-.63,12-10.74S317.51,290.09,315.62,289.46Z"/><path class="cls-3" d="M369.55,93.91a200.62,200.62,0,1,0,27.87,74.35A199.22,199.22,0,0,0,369.55,93.91Zm-11.48,7.19c1.93,3.07,3.76,6.2,5.49,9.36l-68,94.06-9.27-57.67L266.85,25.94a187.4,187.4,0,0,1,91.22,75.16ZM126.19,245.46,115.66,180l15.76-21.79,23.12-32L220,115.66l27.36,19.79,26.41,19.09L284.34,220l-38.88,53.77L180,284.34ZM244.38,18.89q4,1,8,2.15l18.41,114.58L255.38,124.5l-31.95-23.1h0L124.18,29.64a187.51,187.51,0,0,1,120.2-10.75ZM48.94,90.78A185.48,185.48,0,0,1,101.1,41.93c3.07-1.93,6.2-3.76,9.36-5.49l94.06,68-57.67,9.27L25.94,133.15A186.48,186.48,0,0,1,48.94,90.78Zm-30,64.84q1-4,2.15-8l114.58-18.41-15.54,21.49L29.64,275.82a187.51,187.51,0,0,1-10.75-120.2Zm23,143.28c-1.93-3.07-3.76-6.2-5.49-9.36l68-94.06,9.27,57.67,19.44,120.91A187.4,187.4,0,0,1,41.93,298.9Zm113.69,82.21q-4-1-8-2.15L129.24,264.38l146.58,106a187.51,187.51,0,0,1-120.2,10.75Zm195.44-71.89a185.48,185.48,0,0,1-52.16,48.85c-3.07,1.93-6.2,3.76-9.36,5.49l-94.06-68,57.67-9.27,120.91-19.44A186.48,186.48,0,0,1,351.06,309.22Zm30.05-64.84q-1,4-2.15,8L264.38,270.76l106-146.58a187.51,187.51,0,0,1,10.75,120.2Z"/></g></g></svg>